<svg xmlns="http://www.w3.org/2000/svg" version="1.1" xmlns:xlink="http://www.w3.org/1999/xlink" xmlns:svgjs="http://svgjs.dev/svgjs" width="1500" height="617" viewBox="0 0 1500 617"><g transform="matrix(1,0,0,1,-0.9090909090909918,-0.30855172606032966)"><svg viewBox="0 0 396 163" data-background-color="#ffffff" preserveAspectRatio="xMidYMid meet" height="617" width="1500" xmlns="http://www.w3.org/2000/svg" xmlns:xlink="http://www.w3.org/1999/xlink"><g id="tight-bounds" transform="matrix(1,0,0,1,0.2400000000000091,0.08151366506942281)"><svg viewBox="0 0 395.52 162.83697266986115" height="162.83697266986115" width="395.52"><g><svg viewBox="0 0 395.52 162.83697266986115" height="162.83697266986115" width="395.52"><g transform="matrix(1,0,0,1,0,103.72739721905108)"><svg viewBox="0 0 395.52 59.109575450810084" height="59.109575450810084" width="395.52"><g id="textblocktransform"><svg viewBox="0 0 395.52 59.109575450810084" height="59.109575450810084" width="395.52" id="textblock"><g><svg viewBox="0 0 395.52 37.986303657925504" height="37.986303657925504" width="395.52"><g transform="matrix(1,0,0,1,0,0)"><svg width="395.52" viewBox="5 -28.75 299.33 28.75" height="37.986303657925504" data-palette-color="#9877c9"><path d="M5-28.75L5-28.75 11.3-28.75 11.3-5.85 20.8-5.85 20.8 0 5 0 5-28.75ZM23.45-5.85L23.45-5.85 23.45 0 39.45 0 39.45-5.85 23.45-5.85ZM43.95-25.3L43.95-25.3 49.8-28.75 60.15-28.75 60.15-23.1 50.25-23.1 50.25-5.85 59.95-5.85 59.95 0 49.8 0 43.95-3.4 43.95-25.3ZM78.4-25.3L78.4-25.3 72.75-28.75 62.4-28.75 62.4-23.1 72.1-23.1 72.1-5.85 62.4-5.85 62.4 0 72.75 0 78.4-3.4 78.4-25.3ZM83.3-25.3L83.3-25.3 89-28.75 99.3-28.75 99.3-23.1 89.6-23.1 89.6-17.2 99.3-17.2 99.3-11.5 89.6-11.5 89.6 0 83.3 0 83.3-25.3ZM117.75-25.3L117.75-25.3 111.85-28.75 101.55-28.75 101.55-23.1 111.45-23.1 111.45-17.2 101.55-17.2 101.55-11.5 111.45-11.5 111.45 0 117.75 0 117.75-25.3ZM126.74 0L126.74-28.75 132.44-28.75 142.74-19.05 142.74-11.5 133.04-20.85 133.04 0 126.74 0ZM144.99-17.2L154.89-8.1 154.89-28.75 161.19-28.75 161.19 0 155.29 0 144.99-9.9 144.99-17.2ZM171.19-28.75L171.19-28.75 177.49-28.75 177.49-5.85 186.99-5.85 186.99 0 171.19 0 171.19-28.75ZM189.64-5.85L189.64-5.85 189.64 0 205.64 0 205.64-5.85 189.64-5.85ZM210.14-28.75L210.14-28.75 216.44-28.75 216.44 0 210.14 0 210.14-28.75ZM225.44 0L225.44-28.75 231.14-28.75 241.44-19.05 241.44-11.5 231.74-20.85 231.74 0 225.44 0ZM243.69-17.2L253.59-8.1 253.59-28.75 259.89-28.75 259.89 0 253.99 0 243.69-9.9 243.69-17.2ZM269.88 0L269.88-28.75 276.18-28.75 276.18-17.2 278.98-17.2 278.98-11.5 276.18-11.5 276.18 0 269.88 0ZM304.33-2.85L285.88-14.35 304.33-25.9 298.43-28.75 280.83-17.2 280.83-11.5 298.43 0 304.33-2.85Z" opacity="1" transform="matrix(1,0,0,1,0,0)" fill="#9877c9" class="wordmark-text-0" data-fill-palette-color="primary" id="text-0"></path></svg></g></svg></g><g transform="matrix(1,0,0,1,0,46.95395828027392)"><svg viewBox="0 0 395.52 12.15561717053616" height="12.15561717053616" width="395.52"><g transform="matrix(1,0,0,1,0,0)"><svg width="395.52" viewBox="5.03 -39.11 1714.28 52.68" height="12.15561717053616" data-palette-color="#b19dd0"><path d="M11.08-31.47L11.08 0 5.03 0 5.03-35.77 15.82-35.77Q18.9-35.77 21.42-35.02 23.95-34.28 25.77-32.85 27.59-31.42 28.59-29.35 29.59-27.27 29.59-24.58L29.59-24.58Q29.59-21.7 28.49-19.43 27.39-17.16 25.59-15.59 23.78-14.01 21.46-13.17 19.14-12.33 16.72-12.33L16.72-12.33Q16.41-12.33 16.05-12.35 15.7-12.38 15.21-12.45L15.21-12.45 15.58-16.5Q15.94-16.46 16.26-16.44 16.58-16.43 16.85-16.43L16.85-16.43Q18.31-16.43 19.53-16.92 20.75-17.41 21.64-18.36 22.53-19.31 23.03-20.69 23.54-22.07 23.54-23.88L23.54-23.88Q23.54-25.88 22.95-27.32 22.36-28.76 21.25-29.69 20.14-30.62 18.57-31.04 16.99-31.47 15.01-31.47L15.01-31.47 11.08-31.47ZM76.62 0L76.62-1.81Q79.7-4.79 82.11-7.34 84.51-9.89 86.3-12.08 88.1-14.28 89.34-16.17 90.59-18.07 91.37-19.73 92.15-21.39 92.49-22.84 92.84-24.29 92.84-25.63L92.84-25.63Q92.84-27.32 92.29-28.49 91.74-29.66 90.82-30.38 89.91-31.1 88.75-31.42 87.59-31.74 86.37-31.74L86.37-31.74Q85.41-31.74 84.36-31.57 83.31-31.4 82.28-31.09 81.24-30.79 80.27-30.38 79.31-29.98 78.5-29.52L78.5-29.52 78.5-32.74Q80.63-34.35 83.34-35.3 86.05-36.25 88.83-36.25L88.83-36.25Q91.05-36.25 92.96-35.61 94.86-34.96 96.24-33.75 97.62-32.54 98.4-30.83 99.18-29.13 99.18-26.98L99.18-26.98Q99.18-24.68 98.27-22.19 97.35-19.7 95.48-16.92 93.62-14.14 90.81-11 88-7.86 84.22-4.3L84.22-4.3 100.48-4.3 99.65 0 76.62 0ZM157.06-31.47L157.06 0 151 0 151-35.77 161.79-35.77Q164.87-35.77 167.4-35.02 169.92-34.28 171.74-32.85 173.56-31.42 174.56-29.35 175.56-27.27 175.56-24.58L175.56-24.58Q175.56-21.7 174.46-19.43 173.37-17.16 171.56-15.59 169.75-14.01 167.43-13.17 165.11-12.33 162.7-12.33L162.7-12.33Q162.38-12.33 162.03-12.35 161.67-12.38 161.18-12.45L161.18-12.45 161.55-16.5Q161.92-16.46 162.23-16.44 162.55-16.43 162.82-16.43L162.82-16.43Q164.28-16.43 165.5-16.92 166.72-17.41 167.62-18.36 168.51-19.31 169.01-20.69 169.51-22.07 169.51-23.88L169.51-23.88Q169.51-25.88 168.92-27.32 168.34-28.76 167.23-29.69 166.11-30.62 164.54-31.04 162.97-31.47 160.99-31.47L160.99-31.47 157.06-31.47ZM276.59 0L276.59-39.11 282.5-39.11 282.5 0 276.59 0ZM343.55 0.49L343.55 0.49Q340.49 0.49 338.16-0.54 335.83-1.56 334.24-3.31 332.66-5.05 331.84-7.35 331.02-9.64 331.02-12.21L331.02-12.21Q331.02-15.16 332.07-17.74 333.12-20.31 335.01-22.23 336.9-24.15 339.52-25.26 342.13-26.37 345.25-26.37L345.25-26.37Q348.31-26.37 350.65-25.34 352.99-24.32 354.58-22.56 356.17-20.8 356.99-18.49 357.8-16.19 357.8-13.62L357.8-13.62Q357.8-10.64 356.74-8.07 355.68-5.49 353.77-3.59 351.87-1.68 349.26-0.6 346.65 0.49 343.55 0.49ZM344.57-3.74L344.57-3.74Q346.13-3.74 347.43-4.38 348.72-5.03 349.65-6.19 350.58-7.35 351.09-8.96 351.6-10.57 351.6-12.52L351.6-12.52Q351.6-14.43 351.1-16.16 350.6-17.9 349.65-19.23 348.7-20.56 347.33-21.35 345.96-22.14 344.23-22.14L344.23-22.14Q342.64-22.14 341.35-21.48 340.05-20.83 339.14-19.65 338.22-18.48 337.71-16.86 337.2-15.23 337.2-13.31L337.2-13.31Q337.2-11.38 337.7-9.64 338.2-7.91 339.15-6.59 340.1-5.27 341.47-4.5 342.84-3.74 344.57-3.74ZM420.32-3.81L420.32-3.81Q419.68-3.27 418.79-2.53 417.9-1.78 416.81-1.11 415.73-0.44 414.44 0.02 413.16 0.49 411.75 0.49L411.75 0.49Q410.31 0.49 409.07-0.04 407.84-0.56 406.92-1.5 406.01-2.44 405.48-3.75 404.96-5.05 404.96-6.64L404.96-6.64Q404.96-8.3 405.63-9.89 406.3-11.47 407.88-12.72 409.45-13.96 412.04-14.73 414.63-15.5 418.44-15.5L418.44-15.5 420.22-15.5 420.22-17.5Q420.22-18.58 419.85-19.43 419.49-20.29 418.83-20.9 418.17-21.51 417.25-21.83 416.34-22.14 415.21-22.14L415.21-22.14Q414.33-22.14 413.33-21.94 412.33-21.73 411.36-21.36 410.38-21 409.45-20.5 408.52-20 407.79-19.41L407.79-19.41 407.35-19.65 406.23-23.75Q409.18-25.29 411.72-25.83 414.26-26.37 416.48-26.37L416.48-26.37Q418.78-26.37 420.57-25.9 422.37-25.44 423.61-24.48 424.86-23.51 425.5-22.03 426.15-20.56 426.15-18.53L426.15-18.53 426.15-6.57Q426.15-6.2 426.21-5.76 426.27-5.32 426.46-4.93 426.64-4.54 426.99-4.27 427.35-4 427.93-4L427.93-4Q428.27-4 428.76-4.1 429.25-4.2 429.74-4.42L429.74-4.42 429.74-1.49Q428.42-0.59 427.12-0.05 425.81 0.49 424.56 0.49L424.56 0.49Q423.59 0.49 422.88 0.12 422.17-0.24 421.68-0.84 421.19-1.44 420.87-2.21 420.54-2.98 420.32-3.81ZM420.22-6.96L420.22-12.62 418.68-12.62Q416.14-12.62 414.59-12.27 413.04-11.91 412.19-11.29 411.33-10.67 411.05-9.85 410.77-9.03 410.77-8.08L410.77-8.08Q410.77-7.08 411.06-6.32 411.36-5.57 411.86-5.05 412.36-4.54 413.04-4.27 413.72-4 414.51-4L414.51-4Q415.09-4 415.73-4.14 416.36-4.27 417.06-4.61 417.75-4.96 418.53-5.52 419.32-6.08 420.22-6.96L420.22-6.96ZM476.97 0L476.97-25.88 481.75-25.88 482.58-21.46Q483.44-22.24 484.51-23.11 485.59-23.97 486.86-24.69 488.13-25.42 489.53-25.89 490.93-26.37 492.45-26.37L492.45-26.37Q494.23-26.37 495.68-25.7 497.14-25.02 498.16-23.82 499.19-22.61 499.75-20.92 500.31-19.24 500.31-17.24L500.31-17.24 500.31 0 494.38 0 494.38-16.53Q494.38-17.85 494.01-18.85 493.64-19.85 493-20.51 492.35-21.17 491.46-21.51 490.57-21.85 489.54-21.85L489.54-21.85Q487.74-21.85 486.12-20.92 484.51-20 482.88-18.48L482.88-18.48 482.88 0 476.97 0ZM603.02 0L603.02-39.11 608.93-39.11 608.93 0 603.02 0ZM680.21-5.32L680.21-2.37Q679.13-1.61 677.89-1.07 676.64-0.54 675.32-0.18 674 0.17 672.7 0.33 671.39 0.49 670.22 0.49L670.22 0.49Q667.51 0.49 665.18-0.34 662.85-1.17 661.13-2.78 659.41-4.39 658.43-6.75 657.45-9.11 657.45-12.16L657.45-12.16Q657.45-15.41 658.55-18.04 659.65-20.68 661.49-22.52 663.34-24.37 665.77-25.37 668.19-26.37 670.83-26.37L670.83-26.37Q673.03-26.37 674.92-25.65 676.81-24.93 678.19-23.51 679.57-22.09 680.35-19.97 681.13-17.85 681.13-15.04L681.13-15.04Q681.13-14.36 681.07-13.59 681.01-12.82 680.87-12.08L680.87-12.08 663.58-12.08Q663.58-10.11 664.28-8.59 664.97-7.08 666.24-6.07 667.51-5.05 669.29-4.53 671.08-4 673.22-4L673.22-4Q673.83-4 674.65-4.05 675.47-4.1 676.4-4.25 677.33-4.39 678.3-4.65 679.28-4.91 680.21-5.32L680.21-5.32ZM663.58-14.97L675.64-14.97Q675.64-16.75 675.19-18.09 674.74-19.43 673.96-20.34 673.17-21.24 672.14-21.69 671.1-22.14 669.9-22.14L669.9-22.14Q668.56-22.14 667.41-21.61 666.27-21.07 665.41-20.1 664.56-19.14 664.07-17.82 663.58-16.5 663.58-14.97L663.58-14.97ZM729.85 0L729.85-25.88 734.64-25.88 735.47-21.46Q736.32-22.24 737.4-23.11 738.47-23.97 739.74-24.69 741.01-25.42 742.41-25.89 743.82-26.37 745.33-26.37L745.33-26.37Q747.11-26.37 748.57-25.7 750.02-25.02 751.04-23.82 752.07-22.61 752.63-20.92 753.19-19.24 753.19-17.24L753.19-17.24 753.19 0 747.26 0 747.26-16.53Q747.26-17.85 746.89-18.85 746.53-19.85 745.88-20.51 745.23-21.17 744.34-21.51 743.45-21.85 742.43-21.85L742.43-21.85Q740.62-21.85 739.01-20.92 737.4-20 735.76-18.48L735.76-18.48 735.76 0 729.85 0ZM821.05-7.45L821.05-21.07Q819.47-21.75 818.21-21.95 816.95-22.14 816.14-22.14L816.14-22.14Q814.17-22.14 812.62-21.44 811.07-20.73 810.02-19.48 808.97-18.24 808.42-16.52 807.87-14.79 807.87-12.77L807.87-12.77Q807.87-10.94 808.33-9.35 808.8-7.76 809.65-6.57 810.51-5.37 811.71-4.69 812.92-4 814.41-4L814.41-4Q816.17-4 817.84-4.92 819.51-5.83 821.05-7.45L821.05-7.45ZM821.05-25.76L821.05-39.11 826.98-39.11 826.98 0 822.15 0 821.34-4.32Q820.49-3.54 819.48-2.7 818.46-1.86 817.27-1.15 816.07-0.44 814.69 0.02 813.31 0.49 811.75 0.49L811.75 0.49Q809.41 0.49 807.55-0.55 805.7-1.59 804.39-3.31 803.08-5.03 802.4-7.25 801.72-9.47 801.72-11.84L801.72-11.84Q801.72-14.97 802.85-17.63 803.99-20.29 805.96-22.23 807.94-24.17 810.6-25.27 813.26-26.37 816.32-26.37L816.32-26.37Q817.71-26.37 818.94-26.17 820.17-25.98 821.05-25.76L821.05-25.76ZM877.07 0L877.07-25.88 883-25.88 883 0 877.07 0ZM880.02-30.98L880.02-30.98Q879.24-30.98 878.6-31.24 877.95-31.49 877.47-31.93 877-32.37 876.74-32.98 876.48-33.59 876.48-34.3L876.48-34.3Q876.48-35.03 876.77-35.66 877.05-36.28 877.55-36.76 878.05-37.23 878.72-37.5 879.39-37.77 880.17-37.77L880.17-37.77Q880.93-37.77 881.56-37.5 882.2-37.23 882.66-36.78 883.13-36.33 883.39-35.71 883.66-35.08 883.66-34.38L883.66-34.38Q883.66-33.64 883.38-33.02 883.1-32.4 882.6-31.95 882.1-31.49 881.44-31.24 880.78-30.98 880.02-30.98ZM933.16 0L933.16-25.88 937.95-25.88 938.78-21.46Q939.63-22.24 940.71-23.11 941.78-23.97 943.05-24.69 944.32-25.42 945.72-25.89 947.13-26.37 948.64-26.37L948.64-26.37Q950.42-26.37 951.88-25.7 953.33-25.02 954.35-23.82 955.38-22.61 955.94-20.92 956.5-19.24 956.5-17.24L956.5-17.24 956.5 0 950.57 0 950.57-16.53Q950.57-17.85 950.2-18.85 949.84-19.85 949.19-20.51 948.54-21.17 947.65-21.51 946.76-21.85 945.74-21.85L945.74-21.85Q943.93-21.85 942.32-20.92 940.71-20 939.07-18.48L939.07-18.48 939.07 0 933.16 0ZM1019.63 1.78L1013.72 1.78Q1013.16 2.1 1012.55 2.51 1011.94 2.93 1011.41 3.43 1010.89 3.93 1010.54 4.53 1010.2 5.13 1010.2 5.81L1010.2 5.81Q1010.2 6.54 1010.63 7.18 1011.06 7.81 1011.9 8.29 1012.74 8.76 1013.99 9.05 1015.23 9.33 1016.84 9.33L1016.84 9.33Q1018.7 9.33 1020.14 8.96 1021.58 8.59 1022.57 7.97 1023.56 7.35 1024.07 6.54 1024.58 5.74 1024.58 4.86L1024.58 4.86Q1024.58 4.08 1024.19 3.5 1023.8 2.93 1023.13 2.54 1022.46 2.15 1021.55 1.97 1020.65 1.78 1019.63 1.78L1019.63 1.78ZM1010.1 1.29L1010.1 1.29Q1008.42 0.71 1007.36-0.26 1006.3-1.22 1006.3-2.54L1006.3-2.54Q1006.3-3.34 1006.72-4.08 1007.15-4.81 1007.85-5.47 1008.54-6.13 1009.42-6.73 1010.3-7.32 1011.2-7.89L1011.2-7.89Q1009.69-8.54 1008.63-9.45 1007.56-10.35 1006.89-11.43 1006.22-12.5 1005.92-13.7 1005.61-14.89 1005.61-16.11L1005.61-16.11Q1005.61-18.46 1006.61-20.35 1007.61-22.24 1009.26-23.58 1010.91-24.93 1013.02-25.65 1015.13-26.37 1017.38-26.37L1017.38-26.37Q1019.06-26.37 1020.7-25.95 1022.34-25.54 1023.46-24.83L1023.46-24.83Q1024.24-25.27 1025.53-25.57 1026.83-25.88 1028.22-25.88L1028.22-25.88 1032.37-25.88 1031.32-21.68 1026.07-21.68Q1026.22-21.53 1026.51-21.11 1026.8-20.68 1027.07-20.04 1027.34-19.41 1027.55-18.59 1027.76-17.77 1027.76-16.85L1027.76-16.85Q1027.76-14.79 1026.79-13.02 1025.83-11.25 1024.23-9.95 1022.63-8.64 1020.57-7.9 1018.5-7.15 1016.33-7.15L1016.33-7.15Q1015.87-7.15 1015.4-7.19 1014.94-7.23 1014.45-7.28L1014.45-7.28Q1014.06-7.03 1013.62-6.73 1013.18-6.42 1012.81-6.07 1012.45-5.71 1012.2-5.3 1011.96-4.88 1011.96-4.44L1011.96-4.44Q1011.96-3.69 1012.64-3.22 1013.33-2.76 1014.52-2.76L1014.52-2.76 1021.11-2.76Q1022.87-2.76 1024.5-2.33 1026.12-1.9 1027.35-1.09 1028.59-0.27 1029.33 0.92 1030.07 2.1 1030.07 3.61L1030.07 3.61Q1030.07 5.3 1029.11 7.07 1028.15 8.84 1026.27 10.29 1024.39 11.74 1021.63 12.66 1018.87 13.57 1015.28 13.57L1015.28 13.57Q1012.98 13.57 1011.02 13.17 1009.05 12.77 1007.6 12.02 1006.15 11.28 1005.33 10.22 1004.51 9.16 1004.51 7.84L1004.51 7.84Q1004.51 6.67 1005.12 5.66 1005.73 4.66 1006.61 3.83 1007.49 3 1008.44 2.37 1009.4 1.73 1010.1 1.29ZM1011.06-16.89L1011.06-16.89Q1011.06-15.65 1011.48-14.59 1011.91-13.53 1012.68-12.73 1013.45-11.94 1014.49-11.5 1015.52-11.06 1016.77-11.06L1016.77-11.06Q1017.94-11.06 1018.97-11.46 1019.99-11.87 1020.75-12.6 1021.51-13.33 1021.94-14.37 1022.38-15.41 1022.38-16.67L1022.38-16.67Q1022.38-17.92 1021.96-18.97 1021.53-20.02 1020.76-20.79 1019.99-21.56 1018.94-22 1017.89-22.44 1016.65-22.44L1016.65-22.44Q1015.48-22.44 1014.46-22.05 1013.45-21.66 1012.69-20.94 1011.94-20.21 1011.5-19.19 1011.06-18.16 1011.06-16.89ZM1131.57 0L1131.57-25.88 1136.35-25.88 1137.18-21.46Q1138.03-22.24 1139.1-23.11 1140.16-23.97 1141.37-24.69 1142.58-25.42 1143.88-25.89 1145.19-26.37 1146.51-26.37L1146.51-26.37Q1147.68-26.37 1148.78-25.99 1149.88-25.61 1150.8-24.95 1151.73-24.29 1152.44-23.38 1153.15-22.46 1153.54-21.36L1153.54-21.36Q1154.49-22.17 1155.54-23.06 1156.59-23.95 1157.79-24.68 1158.98-25.42 1160.31-25.89 1161.64-26.37 1163.16-26.37L1163.16-26.37Q1164.96-26.37 1166.4-25.66 1167.84-24.95 1168.86-23.72 1169.87-22.49 1170.42-20.81 1170.97-19.14 1170.97-17.19L1170.97-17.19 1170.97 0 1165.04 0 1165.04-16.53Q1165.04-18.99 1163.79-20.42 1162.55-21.85 1160.45-21.85L1160.45-21.85Q1159.57-21.85 1158.77-21.59 1157.98-21.34 1157.22-20.89 1156.47-20.43 1155.71-19.8 1154.95-19.17 1154.15-18.43L1154.15-18.43Q1154.2-18.14 1154.2-17.85 1154.2-17.55 1154.2-17.19L1154.2-17.19 1154.2 0 1148.29 0 1148.29-16.53Q1148.29-17.75 1147.95-18.74 1147.61-19.73 1146.99-20.42 1146.38-21.12 1145.53-21.48 1144.68-21.85 1143.65-21.85L1143.65-21.85Q1142.8-21.85 1142.01-21.59 1141.23-21.34 1140.49-20.89 1139.74-20.43 1139-19.82 1138.25-19.21 1137.47-18.48L1137.47-18.48 1137.47 0 1131.57 0ZM1235.19-3.81L1235.19-3.81Q1234.56-3.27 1233.67-2.53 1232.77-1.78 1231.69-1.11 1230.6-0.44 1229.32 0.02 1228.04 0.49 1226.62 0.49L1226.62 0.49Q1225.18 0.49 1223.95-0.04 1222.72-0.56 1221.8-1.5 1220.88-2.44 1220.36-3.75 1219.83-5.05 1219.83-6.64L1219.83-6.64Q1219.83-8.3 1220.51-9.89 1221.18-11.47 1222.75-12.72 1224.33-13.96 1226.91-14.73 1229.5-15.5 1233.31-15.5L1233.31-15.5 1235.09-15.5 1235.09-17.5Q1235.09-18.58 1234.73-19.43 1234.36-20.29 1233.7-20.9 1233.04-21.51 1232.13-21.83 1231.21-22.14 1230.09-22.14L1230.09-22.14Q1229.21-22.14 1228.21-21.94 1227.21-21.73 1226.23-21.36 1225.25-21 1224.33-20.5 1223.4-20 1222.67-19.41L1222.67-19.41 1222.23-19.65 1221.1-23.75Q1224.06-25.29 1226.6-25.83 1229.14-26.37 1231.36-26.37L1231.36-26.37Q1233.65-26.37 1235.45-25.9 1237.24-25.44 1238.49-24.48 1239.73-23.51 1240.38-22.03 1241.03-20.56 1241.03-18.53L1241.03-18.53 1241.03-6.57Q1241.03-6.2 1241.09-5.76 1241.15-5.32 1241.33-4.93 1241.51-4.54 1241.87-4.27 1242.22-4 1242.81-4L1242.81-4Q1243.15-4 1243.64-4.1 1244.13-4.2 1244.62-4.42L1244.62-4.42 1244.62-1.49Q1243.3-0.59 1241.99-0.05 1240.68 0.49 1239.44 0.49L1239.44 0.49Q1238.46 0.49 1237.75 0.12 1237.05-0.24 1236.56-0.84 1236.07-1.44 1235.74-2.21 1235.41-2.98 1235.19-3.81ZM1235.09-6.96L1235.09-12.62 1233.56-12.62Q1231.02-12.62 1229.47-12.27 1227.92-11.91 1227.06-11.29 1226.21-10.67 1225.93-9.85 1225.65-9.03 1225.65-8.08L1225.65-8.08Q1225.65-7.08 1225.94-6.32 1226.23-5.57 1226.73-5.05 1227.23-4.54 1227.92-4.27 1228.6-4 1229.38-4L1229.38-4Q1229.97-4 1230.6-4.14 1231.24-4.27 1231.93-4.61 1232.63-4.96 1233.41-5.52 1234.19-6.08 1235.09-6.96L1235.09-6.96ZM1309.59-7.45L1309.59-21.07Q1308.01-21.75 1306.75-21.95 1305.49-22.14 1304.69-22.14L1304.69-22.14Q1302.71-22.14 1301.16-21.44 1299.61-20.73 1298.56-19.48 1297.51-18.24 1296.96-16.52 1296.41-14.79 1296.41-12.77L1296.41-12.77Q1296.41-10.94 1296.87-9.35 1297.34-7.76 1298.19-6.57 1299.05-5.37 1300.26-4.69 1301.46-4 1302.95-4L1302.95-4Q1304.71-4 1306.38-4.92 1308.06-5.83 1309.59-7.45L1309.59-7.45ZM1309.59-25.76L1309.59-39.11 1315.53-39.11 1315.53 0 1310.69 0 1309.89-4.32Q1309.03-3.54 1308.02-2.7 1307.01-1.86 1305.81-1.15 1304.61-0.44 1303.23 0.02 1301.85 0.49 1300.29 0.49L1300.29 0.49Q1297.95 0.49 1296.09-0.55 1294.24-1.59 1292.93-3.31 1291.62-5.03 1290.94-7.25 1290.26-9.47 1290.26-11.84L1290.26-11.84Q1290.26-14.97 1291.39-17.63 1292.53-20.29 1294.51-22.23 1296.48-24.17 1299.14-25.27 1301.81-26.37 1304.86-26.37L1304.86-26.37Q1306.25-26.37 1307.48-26.17 1308.71-25.98 1309.59-25.76L1309.59-25.76ZM1386.8-5.32L1386.8-2.37Q1385.73-1.61 1384.48-1.07 1383.24-0.54 1381.92-0.18 1380.6 0.17 1379.3 0.33 1377.99 0.49 1376.82 0.49L1376.82 0.49Q1374.11 0.49 1371.78-0.34 1369.45-1.17 1367.72-2.78 1366-4.39 1365.03-6.75 1364.05-9.11 1364.05-12.16L1364.05-12.16Q1364.05-15.41 1365.15-18.04 1366.25-20.68 1368.09-22.52 1369.93-24.37 1372.36-25.37 1374.79-26.37 1377.43-26.37L1377.43-26.37Q1379.63-26.37 1381.52-25.65 1383.41-24.93 1384.79-23.51 1386.17-22.09 1386.95-19.97 1387.73-17.85 1387.73-15.04L1387.73-15.04Q1387.73-14.36 1387.67-13.59 1387.61-12.82 1387.46-12.08L1387.46-12.08 1370.18-12.08Q1370.18-10.11 1370.87-8.59 1371.57-7.08 1372.84-6.07 1374.11-5.05 1375.89-4.53 1377.67-4 1379.82-4L1379.82-4Q1380.43-4 1381.25-4.05 1382.07-4.1 1383-4.25 1383.92-4.39 1384.9-4.65 1385.88-4.91 1386.8-5.32L1386.8-5.32ZM1370.18-14.97L1382.24-14.97Q1382.24-16.75 1381.79-18.09 1381.33-19.43 1380.55-20.34 1379.77-21.24 1378.73-21.69 1377.7-22.14 1376.5-22.14L1376.5-22.14Q1375.16-22.14 1374.01-21.61 1372.86-21.07 1372.01-20.1 1371.15-19.14 1370.67-17.82 1370.18-16.5 1370.18-14.97L1370.18-14.97ZM1510.22-5.32L1510.22-2.37Q1509.14-1.61 1507.9-1.07 1506.65-0.54 1505.34-0.18 1504.02 0.17 1502.71 0.33 1501.4 0.49 1500.23 0.49L1500.23 0.49Q1497.52 0.49 1495.19-0.34 1492.86-1.17 1491.14-2.78 1489.42-4.39 1488.44-6.75 1487.46-9.11 1487.46-12.16L1487.46-12.16Q1487.46-15.41 1488.56-18.04 1489.66-20.68 1491.5-22.52 1493.35-24.37 1495.78-25.37 1498.21-26.37 1500.84-26.37L1500.84-26.37Q1503.04-26.37 1504.93-25.65 1506.82-24.93 1508.2-23.51 1509.58-22.09 1510.36-19.97 1511.15-17.85 1511.15-15.04L1511.15-15.04Q1511.15-14.36 1511.08-13.59 1511.02-12.82 1510.88-12.08L1510.88-12.08 1493.59-12.08Q1493.59-10.11 1494.29-8.59 1494.98-7.08 1496.25-6.07 1497.52-5.05 1499.3-4.53 1501.09-4 1503.24-4L1503.24-4Q1503.85-4 1504.66-4.05 1505.48-4.1 1506.41-4.25 1507.34-4.39 1508.31-4.65 1509.29-4.91 1510.22-5.32L1510.22-5.32ZM1493.59-14.97L1505.65-14.97Q1505.65-16.75 1505.2-18.09 1504.75-19.43 1503.97-20.34 1503.19-21.24 1502.15-21.69 1501.11-22.14 1499.92-22.14L1499.92-22.14Q1498.57-22.14 1497.42-21.61 1496.28-21.07 1495.42-20.1 1494.57-19.14 1494.08-17.82 1493.59-16.5 1493.59-14.97L1493.59-14.97ZM1573.83-3.81L1573.83-3.81Q1573.19-3.27 1572.3-2.53 1571.41-1.78 1570.33-1.11 1569.24-0.44 1567.96 0.02 1566.68 0.49 1565.26 0.49L1565.26 0.49Q1563.82 0.49 1562.59-0.04 1561.35-0.56 1560.44-1.5 1559.52-2.44 1559-3.75 1558.47-5.05 1558.47-6.64L1558.47-6.64Q1558.47-8.3 1559.14-9.89 1559.82-11.47 1561.39-12.72 1562.97-13.96 1565.55-14.73 1568.14-15.5 1571.95-15.5L1571.95-15.5 1573.73-15.5 1573.73-17.5Q1573.73-18.58 1573.37-19.43 1573-20.29 1572.34-20.9 1571.68-21.51 1570.77-21.83 1569.85-22.14 1568.73-22.14L1568.73-22.14Q1567.85-22.14 1566.85-21.94 1565.85-21.73 1564.87-21.36 1563.89-21 1562.97-20.5 1562.04-20 1561.3-19.41L1561.3-19.41 1560.87-19.65 1559.74-23.75Q1562.7-25.29 1565.24-25.83 1567.77-26.37 1570-26.37L1570-26.37Q1572.29-26.37 1574.09-25.9 1575.88-25.44 1577.13-24.48 1578.37-23.51 1579.02-22.03 1579.66-20.56 1579.66-18.53L1579.66-18.53 1579.66-6.57Q1579.66-6.2 1579.73-5.76 1579.79-5.32 1579.97-4.93 1580.15-4.54 1580.51-4.27 1580.86-4 1581.45-4L1581.45-4Q1581.79-4 1582.28-4.1 1582.76-4.2 1583.25-4.42L1583.25-4.42 1583.25-1.49Q1581.93-0.59 1580.63-0.05 1579.32 0.49 1578.08 0.49L1578.08 0.49Q1577.1 0.49 1576.39 0.12 1575.68-0.24 1575.2-0.84 1574.71-1.44 1574.38-2.21 1574.05-2.98 1573.83-3.81ZM1573.73-6.96L1573.73-12.62 1572.19-12.62Q1569.65-12.62 1568.1-12.27 1566.55-11.91 1565.7-11.29 1564.84-10.67 1564.56-9.85 1564.28-9.03 1564.28-8.08L1564.28-8.08Q1564.28-7.08 1564.58-6.32 1564.87-5.57 1565.37-5.05 1565.87-4.54 1566.55-4.27 1567.24-4 1568.02-4L1568.02-4Q1568.6-4 1569.24-4.14 1569.87-4.27 1570.57-4.61 1571.27-4.96 1572.05-5.52 1572.83-6.08 1573.73-6.96L1573.73-6.96ZM1629.09-1.22L1630.14-5.66 1630.58-5.93Q1631.53-5.42 1632.57-5 1633.61-4.59 1634.63-4.31 1635.66-4.03 1636.64-3.88 1637.61-3.74 1638.47-3.74L1638.47-3.74Q1640.69-3.74 1641.95-4.66 1643.2-5.59 1643.2-7.03L1643.2-7.03Q1643.2-8.01 1642.63-8.64 1642.06-9.28 1641.12-9.73 1640.18-10.18 1638.98-10.52 1637.78-10.86 1636.53-11.24 1635.27-11.62 1634.07-12.11 1632.88-12.6 1631.94-13.35 1631-14.11 1630.42-15.2 1629.85-16.28 1629.85-17.87L1629.85-17.87Q1629.85-19.65 1630.62-21.22 1631.39-22.78 1632.81-23.91 1634.24-25.05 1636.28-25.71 1638.32-26.37 1640.86-26.37L1640.86-26.37Q1641.49-26.37 1642.34-26.32 1643.18-26.27 1644.09-26.16 1645.01-26.05 1645.94-25.88 1646.86-25.71 1647.67-25.44L1647.67-25.44 1646.6-21.07 1646.06-20.75Q1645.33-21.12 1644.48-21.39 1643.64-21.66 1642.8-21.81 1641.96-21.97 1641.16-22.06 1640.37-22.14 1639.76-22.14L1639.76-22.14Q1637.61-22.14 1636.4-21.29 1635.19-20.43 1635.19-18.99L1635.19-18.99Q1635.19-17.99 1635.78-17.35 1636.37-16.7 1637.31-16.25 1638.25-15.8 1639.47-15.47 1640.69-15.14 1641.95-14.76 1643.2-14.38 1644.42-13.89 1645.64-13.4 1646.58-12.65 1647.52-11.89 1648.11-10.79 1648.7-9.69 1648.7-8.08L1648.7-8.08Q1648.7-6.27 1647.91-4.7 1647.13-3.13 1645.69-1.98 1644.25-0.83 1642.23-0.17 1640.2 0.49 1637.73 0.49L1637.73 0.49Q1635.71 0.49 1633.44 0.05 1631.17-0.39 1629.09-1.22L1629.09-1.22ZM1703.62 0L1694.36-25.88 1700.91-25.88 1705.94-9.3 1707.06-4.44 1707.55-4.44 1708.64-9.3 1713.72-25.88 1719.31-25.88 1705.42 13.09 1699.95 13.09 1705.42 0 1703.62 0Z" opacity="1" transform="matrix(1,0,0,1,0,0)" fill="#b19dd0" class="slogan-text-1" data-fill-palette-color="secondary" id="text-1"></path></svg></g></svg></g></svg></g></svg></g><g transform="matrix(1,0,0,1,151.07953324708444,0)"><svg viewBox="0 0 93.36093350583108 94.75974259670267" height="94.75974259670267" width="93.36093350583108"><g><svg xmlns="http://www.w3.org/2000/svg" xmlns:xlink="http://www.w3.org/1999/xlink" version="1.1" x="0" y="0" viewBox="8.121977368218694 7.493786914987959 83.75727727528256 85.01219661338021" enable-background="new 0 0 100 100" xml:space="preserve" height="94.75974259670267" width="93.36093350583108" class="icon-icon-0" data-fill-palette-color="accent" id="icon-0"><path fill-rule="evenodd" clip-rule="evenodd" d="M89.314 35.387L69.91 68.997l-0.016 0.026c-2.549 4.397-6.655 7.356-11.22 8.579-5.415 1.45-11.199 0.37-15.699-2.919l2.011-3.483c3.572 2.784 8.249 3.725 12.658 2.543 3.544-0.949 6.729-3.219 8.726-6.583 0.051-0.107 0.11-0.211 0.181-0.311l19.345-33.505c0.019-0.039 0.04-0.077 0.062-0.115 1.991-3.449 2.389-7.405 1.426-11-0.949-3.544-3.218-6.729-6.581-8.726-0.091-0.042-0.179-0.091-0.264-0.148-3.424-1.938-7.337-2.319-10.894-1.366-3.593 0.963-6.82 3.287-8.813 6.739l-19.5 33.775c-2.22 3.844-2.522 8.514-0.888 12.625l-2.394 4.146c-3.433-5.743-3.536-12.945-0.172-18.771l19.5-33.775c2.544-4.406 6.658-7.371 11.235-8.598 4.527-1.213 9.516-0.725 13.893 1.753 0.107 0.052 0.21 0.113 0.306 0.182 4.316 2.555 7.223 6.62 8.431 11.132 1.213 4.527 0.725 9.515-1.752 13.891C89.439 35.194 89.381 35.293 89.314 35.387z" fill="#754b97" data-fill-palette-color="accent"></path><path fill-rule="evenodd" clip-rule="evenodd" d="M62.022 49.659L42.618 83.268l-0.003 0.007 0.003 0.002c-5.056 8.757-16.323 11.815-25.112 6.852-0.103-0.048-0.201-0.104-0.293-0.169-8.7-5.125-11.687-16.419-6.626-25.184L30.086 31c0.023-0.039 0.047-0.078 0.072-0.115 2.553-4.345 6.631-7.269 11.163-8.483 5.419-1.452 11.202-0.373 15.704 2.922l-2.012 3.483c-3.568-2.783-8.256-3.726-12.66-2.546-3.563 0.955-6.764 3.243-8.757 6.636-0.017 0.035-0.036 0.069-0.056 0.103l-19.5 33.776c-3.987 6.905-1.598 15.818 5.308 19.81l0.005 0.003c6.907 3.987 15.823 1.598 19.813-5.313l0.003 0.002 19.435-33.663c0.02-0.039 0.04-0.077 0.062-0.115 2.219-3.843 2.521-8.51 0.89-12.62l2.394-4.146c3.4 5.694 3.533 12.824 0.25 18.626C62.147 49.465 62.09 49.565 62.022 49.659z" fill="#754b97" data-fill-palette-color="accent"></path></svg></g></svg></g><g></g></svg></g><defs></defs></svg><rect width="395.52" height="162.83697266986115" fill="none" stroke="none" visibility="hidden"></rect></g></svg></g></svg>